# Blender 3.3.0
# www.blender.org
mtllib Left_Leg.mtl
o Left_Leg
v -0.002000 -0.037947 0.184986
v -0.003311 -0.037855 0.172525
v 0.000623 -0.037995 0.137000
v -0.007198 -0.037312 0.209429
v -0.003311 -0.037855 0.197475
v 0.000623 -0.037995 0.237000
v -0.007212 -0.037309 0.160541
v -0.013459 -0.035537 0.149733
v -0.018277 -0.033316 0.137000
v -0.018277 -0.033316 0.143911
v -0.026000 -0.027713 0.137000
v -0.032067 -0.020389 0.237000
v -0.025493 -0.028180 0.232615
v -0.018277 -0.033316 0.237000
v -0.018277 -0.033316 0.226089
v -0.013459 -0.035537 0.220267
v 0.019358 -0.032699 0.137000
v 0.019358 -0.032699 0.237000
v 0.033012 -0.018820 0.137000
v 0.033012 -0.018820 0.237000
v 0.038000 -0.000000 0.137000
v 0.038000 -0.000000 0.237000
v 0.021651 0.012500 0.137000
v 0.012500 0.021651 0.137000
v 0.042500 -0.000000 0.137000
v 0.042500 0.050000 0.137000
v -0.026000 0.050000 0.137000
v -0.000000 0.025000 0.137000
v -0.012500 0.021651 0.137000
v -0.021651 0.012500 0.137000
v -0.025000 -0.000000 0.137000
v -0.021651 -0.012500 0.137000
v -0.012500 -0.021651 0.137000
v -0.000000 -0.025000 0.137000
v 0.012500 -0.021651 0.137000
v 0.021651 -0.012500 0.137000
v 0.025000 -0.000000 0.137000
v 0.038000 -0.000000 0.237000
v 0.042500 -0.000000 0.237000
v 0.012500 0.021651 0.237000
v 0.042500 0.050000 0.237000
v -0.000000 0.025000 0.237000
v -0.032067 0.050000 0.237000
v -0.012500 0.021651 0.237000
v 0.021651 0.012500 0.237000
v 0.025000 -0.000000 0.237000
v 0.021651 -0.012500 0.237000
v 0.012500 -0.021651 0.237000
v -0.000000 -0.025000 0.237000
v -0.012500 -0.021651 0.237000
v -0.021651 -0.012500 0.237000
v -0.025000 -0.000000 0.237000
v -0.021651 0.012500 0.237000
v -0.000000 -0.025000 0.030000
v -0.012500 -0.021651 0.030000
v -0.021651 -0.012500 0.030000
v -0.025000 -0.000000 0.030000
v -0.021651 0.012500 0.030000
v -0.012500 0.021651 0.030000
v -0.000000 0.025000 0.030000
v 0.012500 0.021651 0.030000
v 0.021651 0.012500 0.030000
v 0.025000 -0.000000 0.030000
v 0.021651 -0.012500 0.030000
v 0.012500 -0.021651 0.030000
v -0.022517 0.013000 0.030000
v -0.026000 -0.000000 0.030000
v -0.022517 -0.013000 0.030000
v -0.013000 -0.022517 0.030000
v -0.000000 -0.025000 0.030000
v -0.000000 -0.026000 0.030000
v 0.013000 -0.022517 0.030000
v 0.022517 -0.013000 0.030000
v 0.026000 -0.000000 0.030000
v 0.022517 0.013000 0.030000
v 0.013000 0.022517 0.030000
v -0.000000 0.026000 0.030000
v -0.013000 0.022517 0.030000
v -0.000000 -0.026000 0.022000
v -0.013000 -0.022517 0.022000
v -0.022517 -0.013000 0.022000
v -0.026000 -0.000000 0.022000
v -0.022517 0.013000 0.022000
v -0.013000 0.022517 0.022000
v -0.000000 0.026000 0.022000
v 0.013000 0.022517 0.022000
v 0.022517 0.013000 0.022000
v 0.026000 -0.000000 0.022000
v 0.022517 -0.013000 0.022000
v 0.013000 -0.022517 0.022000
v -0.000000 -0.000000 0.022000
v -0.000000 -0.026000 0.022000
v -0.013459 0.050000 0.149733
v -0.003311 0.050000 0.172525
v -0.003311 0.050000 0.197475
v -0.013459 0.050000 0.220267
v -0.032000 0.050000 0.236962
v 0.042500 -0.000000 0.137000
v 0.042500 -0.000000 0.237000
v -0.000000 -0.050000 1.147000
v 0.021694 -0.045048 1.147000
v -0.000000 0.000000 1.147000
v -0.021694 -0.045048 1.147000
v -0.048746 0.011126 1.147000
v -0.048746 -0.011126 1.147000
v -0.039092 -0.031174 1.147000
v -0.000000 0.050000 1.147000
v -0.021694 0.045048 1.147000
v -0.039092 0.031174 1.147000
v 0.048746 0.011126 1.147000
v 0.039092 0.031174 1.147000
v 0.021694 0.045048 1.147000
v 0.039092 -0.031174 1.147000
v 0.048746 -0.011126 1.147000
v -0.000000 -0.050000 1.047000
v -0.021694 -0.045048 1.047000
v -0.039092 -0.031174 1.047000
v -0.048746 -0.011126 1.047000
v -0.048746 0.011126 1.047000
v -0.039092 0.031174 1.047000
v -0.021694 0.045048 1.047000
v -0.000000 0.050000 1.047000
v 0.021694 0.045048 1.047000
v 0.039092 0.031174 1.047000
v 0.048746 0.011126 1.047000
v 0.048746 -0.011126 1.047000
v 0.039092 -0.031174 1.047000
v 0.021694 -0.045048 1.047000
v -0.025000 0.000000 1.047000
v -0.021651 0.012500 1.047000
v -0.012500 0.021651 1.047000
v -0.000000 0.025000 1.047000
v 0.012500 0.021651 1.047000
v 0.021651 0.012500 1.047000
v 0.025000 0.000000 1.047000
v 0.021651 -0.012500 1.047000
v 0.012500 -0.021651 1.047000
v -0.000000 -0.025000 1.047000
v -0.000000 -0.050000 1.047000
v -0.012500 -0.021651 1.047000
v -0.021651 -0.012500 1.047000
v -0.000000 -0.025000 0.237000
v -0.032000 -0.058000 0.236962
v -0.032000 0.058000 0.133038
v -0.032000 -0.058000 0.133038
v -0.013459 -0.058000 0.149733
v -0.013459 0.058000 0.149733
v -0.003311 0.058000 0.172525
v -0.002000 0.058000 0.185000
v -0.032000 0.058000 0.236962
v -0.013459 0.058000 0.220267
v -0.003311 0.058000 0.197475
v -0.055728 -0.058000 0.244671
v -0.055728 0.058000 0.244671
v -0.013459 -0.058000 0.220267
v -0.003311 -0.058000 0.172525
v -0.002000 -0.058000 0.185000
v -0.003311 -0.058000 0.197475
v -0.055728 -0.058000 0.125329
v -0.055728 0.058000 0.125329
v -0.080541 -0.058000 0.127937
v -0.080541 0.058000 0.127937
v -0.102148 -0.058000 0.140411
v -0.102148 0.058000 0.140411
v -0.116813 -0.058000 0.160596
v -0.116813 0.058000 0.160596
v -0.122000 -0.058000 0.185000
v -0.122000 0.058000 0.185000
v -0.116813 -0.058000 0.209404
v -0.116813 0.058000 0.209404
v -0.102148 -0.058000 0.229589
v -0.102148 0.058000 0.229589
v -0.080541 -0.058000 0.242063
v -0.080541 0.058000 0.242063
v -0.062000 -0.058000 0.185000
v -0.062000 0.058000 0.185000
vn -0.0522 -0.9986 -0.0019
vn -0.1146 -0.9934 0.0079
vn -0.0531 -0.9986 0.0018
vn -0.1127 -0.9936 -0.0086
vn -0.2073 -0.9774 -0.0405
vn -0.2396 -0.9677 -0.0781
vn -0.4186 -0.9082 -0.0000
vn -0.5872 -0.8094 -0.0000
vn -0.6601 -0.7042 0.2615
vn -0.5799 -0.8147 -0.0000
vn -0.2403 -0.9707 -0.0000
vn -0.2998 -0.9472 0.1132
vn -0.2137 -0.9762 0.0364
vn -0.0181 -0.9998 -0.0000
vn 0.2720 -0.9623 -0.0000
vn 0.7129 -0.7013 -0.0000
vn 0.9666 -0.2562 -0.0000
vn -0.0000 -0.0000 -1.0000
vn -0.0000 -0.0000 1.0000
vn -0.2588 -0.9659 -0.0000
vn -0.7071 -0.7071 -0.0000
vn -0.9659 -0.2588 -0.0000
vn -0.9659 0.2588 -0.0000
vn -0.7071 0.7071 -0.0000
vn -0.2588 0.9659 -0.0000
vn 0.2588 0.9659 -0.0000
vn 0.7071 0.7071 -0.0000
vn 0.9659 0.2588 -0.0000
vn 0.9659 -0.2588 -0.0000
vn 0.7071 -0.7071 -0.0000
vn 0.2588 -0.9659 -0.0000
vn -0.0000 1.0000 -0.0000
vn -0.0000 1.0000 0.0002
vn 1.0000 -0.0000 -0.0000
vn -0.0000 -1.0000 -0.0000
vn -0.2225 -0.9749 -0.0000
vn -0.6235 -0.7818 -0.0000
vn -0.9010 -0.4339 -0.0000
vn -1.0000 -0.0000 -0.0000
vn -0.9010 0.4339 -0.0000
vn -0.6235 0.7818 -0.0000
vn -0.2225 0.9749 -0.0000
vn 0.2225 0.9749 -0.0000
vn 0.6235 0.7818 -0.0000
vn 0.9010 0.4339 -0.0000
vn 0.9010 -0.4339 -0.0000
vn 0.6235 -0.7818 -0.0000
vn 0.2225 -0.9749 -0.0000
vn 0.5550 0.0001 0.8319
vn 0.7003 0.1837 -0.6898
vn 0.5510 -0.0000 -0.8345
vn 0.6541 -0.0307 -0.7558
vn 0.6685 -0.0446 -0.7424
vn 0.6691 -0.0000 -0.7431
vn 0.9135 -0.0000 -0.4067
vn 0.9945 -0.0000 -0.1045
vn 0.9868 -0.1617 -0.0000
vn 0.6691 -0.0000 0.7431
vn 0.9135 -0.0000 0.4067
vn 0.9945 -0.0000 0.1045
vn 0.3090 -0.0004 0.9511
vn 0.3090 0.0020 0.9511
vn 0.4995 -0.0000 0.8663
vn 0.7414 -0.1215 0.6599
vn 0.6571 -0.0336 0.7530
vn 0.7704 -0.0000 -0.6376
vn 0.8658 -0.0000 -0.5004
vn 0.9117 -0.0632 -0.4059
vn 0.9509 -0.0000 -0.3095
vn 0.9945 -0.0001 -0.1046
vn 0.9945 0.0001 0.1045
vn 0.9945 -0.0000 0.1044
vn 0.9423 -0.1217 0.3119
vn 0.8659 -0.0000 0.5002
vn 0.3090 -0.0000 -0.9511
vn -0.1045 -0.0000 -0.9945
vn -0.5000 -0.0000 -0.8660
vn -0.8090 -0.0000 -0.5878
vn -0.9781 -0.0000 -0.2079
vn -0.9781 -0.0000 0.2079
vn -0.8090 -0.0000 0.5878
vn -0.5000 -0.0000 0.8660
vn -0.1045 -0.0000 0.9945
vn 0.3084 -0.0000 0.9513
s 0
f 1//1 2//1 3//1
f 4//2 5//2 6//2
f 6//3 5//3 1//3
f 2//4 7//4 3//4
f 3//5 7//5 8//5
f 3//6 8//6 9//6
f 9//7 8//7 10//7
f 9//8 10//8 11//8
f 12//9 13//9 14//9
f 14//10 13//10 15//10
f 14//11 15//11 6//11
f 6//12 15//12 16//12
f 6//13 16//13 4//13
f 1//14 3//14 6//14
f 6//15 3//15 17//15
f 6//15 17//15 18//15
f 18//16 17//16 19//16
f 18//16 19//16 20//16
f 20//17 19//17 21//17
f 20//17 21//17 22//17
f 23//18 24//18 21//18
f 25//18 21//18 26//18
f 26//18 21//18 24//18
f 26//18 24//18 27//18
f 27//18 24//18 28//18
f 27//18 28//18 29//18
f 29//18 30//18 27//18
f 27//18 30//18 31//18
f 27//18 31//18 11//18
f 11//18 31//18 32//18
f 11//18 32//18 9//18
f 9//18 32//18 33//18
f 9//18 33//18 3//18
f 3//18 33//18 34//18
f 3//18 34//18 17//18
f 17//18 34//18 35//18
f 17//18 35//18 19//18
f 19//18 35//18 36//18
f 19//18 36//18 21//18
f 21//18 36//18 37//18
f 21//18 37//18 23//18
f 38//19 39//19 40//19
f 40//19 39//19 41//19
f 40//19 41//19 42//19
f 42//19 41//19 43//19
f 42//19 43//19 44//19
f 40//19 45//19 38//19
f 38//19 45//19 46//19
f 38//19 46//19 20//19
f 20//19 46//19 47//19
f 20//19 47//19 18//19
f 18//19 47//19 48//19
f 18//19 48//19 6//19
f 6//19 48//19 49//19
f 6//19 49//19 14//19
f 14//19 49//19 50//19
f 14//19 50//19 12//19
f 50//19 51//19 12//19
f 12//19 51//19 52//19
f 12//19 52//19 43//19
f 43//19 52//19 53//19
f 43//19 53//19 44//19
f 54//20 33//20 55//20
f 55//21 33//21 32//21
f 55//21 32//21 56//21
f 56//22 32//22 31//22
f 56//22 31//22 57//22
f 57//23 31//23 30//23
f 57//23 30//23 58//23
f 58//24 30//24 29//24
f 58//24 29//24 59//24
f 59//25 29//25 28//25
f 59//25 28//25 60//25
f 60//26 28//26 24//26
f 60//26 24//26 61//26
f 61//27 24//27 23//27
f 61//27 23//27 62//27
f 62//28 23//28 37//28
f 62//28 37//28 63//28
f 63//29 37//29 36//29
f 63//29 36//29 64//29
f 64//30 36//30 35//30
f 64//30 35//30 65//30
f 65//31 35//31 34//31
f 65//31 34//31 54//31
f 54//20 34//20 33//20
f 58//19 66//19 57//19
f 57//19 66//19 67//19
f 57//19 67//19 56//19
f 56//19 67//19 68//19
f 56//19 68//19 55//19
f 55//19 68//19 69//19
f 55//19 69//19 70//19
f 70//19 69//19 71//19
f 70//19 71//19 65//19
f 65//19 71//19 72//19
f 65//19 72//19 64//19
f 64//19 72//19 73//19
f 64//19 73//19 63//19
f 63//19 73//19 74//19
f 63//19 74//19 62//19
f 62//19 74//19 75//19
f 62//19 75//19 61//19
f 61//19 75//19 76//19
f 61//19 76//19 60//19
f 60//19 76//19 77//19
f 60//19 77//19 59//19
f 59//19 77//19 78//19
f 59//19 78//19 58//19
f 58//19 78//19 66//19
f 79//20 69//20 80//20
f 80//21 69//21 68//21
f 80//21 68//21 81//21
f 81//22 68//22 67//22
f 81//22 67//22 82//22
f 82//23 67//23 66//23
f 82//23 66//23 83//23
f 83//24 66//24 78//24
f 83//24 78//24 84//24
f 84//25 78//25 77//25
f 84//25 77//25 85//25
f 85//26 77//26 76//26
f 85//26 76//26 86//26
f 86//27 76//27 75//27
f 86//27 75//27 87//27
f 87//28 75//28 74//28
f 87//28 74//28 88//28
f 88//29 74//29 73//29
f 88//29 73//29 89//29
f 89//30 73//30 72//30
f 89//30 72//30 90//30
f 90//31 72//31 71//31
f 90//31 71//31 79//31
f 79//20 71//20 69//20
f 89//18 90//18 91//18
f 91//18 90//18 92//18
f 91//18 92//18 80//18
f 86//18 87//18 91//18
f 91//18 87//18 88//18
f 91//18 88//18 89//18
f 83//18 84//18 91//18
f 91//18 84//18 85//18
f 91//18 85//18 86//18
f 80//18 81//18 91//18
f 91//18 81//18 82//18
f 91//18 82//18 83//18
f 27//32 93//32 26//32
f 26//32 93//32 94//32
f 26//32 94//32 41//32
f 41//32 94//32 95//32
f 95//32 96//32 41//32
f 41//32 96//32 97//32
f 41//33 97//33 43//33
f 25//34 26//34 39//34
f 39//34 26//34 41//34
f 21//35 98//35 38//35
f 38//35 98//35 99//35
f 100//19 101//19 102//19
f 100//19 102//19 103//19
f 104//19 105//19 102//19
f 102//19 105//19 106//19
f 102//19 106//19 103//19
f 107//19 108//19 102//19
f 102//19 108//19 109//19
f 102//19 109//19 104//19
f 110//19 111//19 102//19
f 102//19 111//19 112//19
f 102//19 112//19 107//19
f 101//19 113//19 102//19
f 102//19 113//19 114//19
f 102//19 114//19 110//19
f 115//36 103//36 116//36
f 116//37 103//37 106//37
f 116//37 106//37 117//37
f 117//38 106//38 105//38
f 117//38 105//38 118//38
f 118//39 105//39 104//39
f 118//39 104//39 119//39
f 119//40 104//40 109//40
f 119//40 109//40 120//40
f 120//41 109//41 108//41
f 120//41 108//41 121//41
f 121//42 108//42 107//42
f 121//42 107//42 122//42
f 122//43 107//43 112//43
f 122//43 112//43 123//43
f 123//44 112//44 111//44
f 123//44 111//44 124//44
f 124//45 111//45 110//45
f 124//45 110//45 125//45
f 125//34 110//34 114//34
f 125//34 114//34 126//34
f 126//46 114//46 113//46
f 126//46 113//46 127//46
f 127//47 113//47 101//47
f 127//47 101//47 128//47
f 128//48 101//48 100//48
f 128//48 100//48 115//48
f 115//36 100//36 103//36
f 129//18 119//18 130//18
f 130//18 119//18 120//18
f 130//18 120//18 131//18
f 131//18 120//18 121//18
f 131//18 121//18 132//18
f 132//18 121//18 122//18
f 132//18 122//18 133//18
f 133//18 122//18 123//18
f 133//18 123//18 134//18
f 134//18 123//18 124//18
f 134//18 124//18 135//18
f 124//18 125//18 135//18
f 135//18 125//18 126//18
f 135//18 126//18 136//18
f 136//18 126//18 127//18
f 136//18 127//18 137//18
f 137//18 127//18 128//18
f 137//18 128//18 138//18
f 138//18 128//18 139//18
f 138//18 139//18 140//18
f 140//18 139//18 116//18
f 140//18 116//18 141//18
f 141//18 116//18 117//18
f 141//18 117//18 129//18
f 129//18 117//18 118//18
f 129//18 118//18 119//18
f 142//20 140//20 50//20
f 50//21 140//21 141//21
f 50//21 141//21 51//21
f 51//22 141//22 129//22
f 51//22 129//22 52//22
f 52//23 129//23 130//23
f 52//23 130//23 53//23
f 53//24 130//24 131//24
f 53//24 131//24 44//24
f 44//25 131//25 132//25
f 44//25 132//25 42//25
f 42//26 132//26 133//26
f 42//26 133//26 40//26
f 40//27 133//27 134//27
f 40//27 134//27 45//27
f 45//28 134//28 135//28
f 45//28 135//28 46//28
f 46//29 135//29 136//29
f 46//29 136//29 47//29
f 47//30 136//30 137//30
f 47//30 137//30 48//30
f 48//31 137//31 138//31
f 48//31 138//31 142//31
f 142//20 138//20 140//20
f 13//49 12//49 143//49
f 93//50 27//50 144//50
f 144//51 27//51 11//51
f 145//52 11//52 10//52
f 145//53 10//53 146//53
f 144//54 147//54 93//54
f 93//55 147//55 148//55
f 93//55 148//55 94//55
f 94//56 148//56 149//56
f 94//57 149//57 95//57
f 150//58 96//58 151//58
f 151//59 96//59 95//59
f 151//59 95//59 152//59
f 152//60 95//60 149//60
f 143//61 12//61 153//61
f 154//62 43//62 150//62
f 150//63 43//63 97//63
f 150//58 97//58 96//58
f 155//58 16//58 143//58
f 143//64 16//64 15//64
f 143//65 15//65 13//65
f 10//66 8//66 146//66
f 146//67 8//67 7//67
f 146//68 7//68 156//68
f 156//69 7//69 2//69
f 156//56 2//56 157//56
f 157//70 2//70 1//70
f 157//71 1//71 158//71
f 158//72 1//72 5//72
f 158//59 5//59 155//59
f 155//73 5//73 4//73
f 155//74 4//74 16//74
f 11//51 145//51 144//51
f 144//75 145//75 159//75
f 144//75 159//75 160//75
f 160//76 159//76 161//76
f 160//76 161//76 162//76
f 162//77 161//77 163//77
f 162//77 163//77 164//77
f 164//78 163//78 165//78
f 164//78 165//78 166//78
f 166//79 165//79 167//79
f 166//79 167//79 168//79
f 168//80 167//80 169//80
f 168//80 169//80 170//80
f 170//81 169//81 171//81
f 170//81 171//81 172//81
f 172//82 171//82 173//82
f 172//82 173//82 174//82
f 174//83 173//83 153//83
f 174//83 153//83 154//83
f 154//84 153//84 12//84
f 154//84 12//84 43//84
f 157//35 158//35 175//35
f 145//35 146//35 175//35
f 175//35 146//35 156//35
f 175//35 156//35 157//35
f 163//35 161//35 175//35
f 175//35 161//35 159//35
f 175//35 159//35 145//35
f 169//35 167//35 175//35
f 175//35 167//35 165//35
f 175//35 165//35 163//35
f 153//35 173//35 175//35
f 175//35 173//35 171//35
f 175//35 171//35 169//35
f 158//35 155//35 175//35
f 175//35 155//35 143//35
f 175//35 143//35 153//35
f 149//32 148//32 176//32
f 150//32 151//32 176//32
f 176//32 151//32 152//32
f 176//32 152//32 149//32
f 172//32 174//32 176//32
f 176//32 174//32 154//32
f 176//32 154//32 150//32
f 166//32 168//32 176//32
f 176//32 168//32 170//32
f 176//32 170//32 172//32
f 160//32 162//32 176//32
f 176//32 162//32 164//32
f 176//32 164//32 166//32
f 148//32 147//32 176//32
f 176//32 147//32 144//32
f 176//32 144//32 160//32
