# Blender 3.4.1
# www.blender.org
mtllib Left_Foot.mtl
o Left_Foot
v 0.013051 0.017276 -0.034278
v -0.012943 0.017276 -0.034278
v 0.013051 -0.017276 -0.034278
v -0.012943 -0.017276 -0.034278
v -0.024083 0.017276 -0.034278
v -0.102063 0.074861 -0.034278
v -0.024083 -0.017276 -0.034278
v -0.102063 -0.074861 -0.034278
v 0.102171 -0.074861 -0.034278
v 0.102171 0.074861 -0.034278
v 0.024191 0.017276 -0.034278
v 0.024191 -0.017276 -0.034278
v -0.102063 0.074861 -0.046346
v 0.102171 0.074861 -0.046346
v -0.102063 -0.074861 -0.046346
v 0.102171 -0.074861 -0.046346
v 0.013051 -0.017276 -0.005500
v 0.013051 0.017276 -0.005500
v 0.024191 -0.017276 -0.005500
v 0.024191 0.017276 -0.005500
v -0.024083 0.017276 -0.005500
v -0.012943 0.017276 -0.005500
v -0.024083 -0.017276 -0.005500
v -0.012943 -0.017276 -0.005500
v 0.003673 0.077610 -0.034278
v 0.003702 0.077610 -0.040097
v 0.003733 0.077610 -0.046346
v -0.006769 -0.077610 -0.034278
v -0.006412 -0.077610 -0.046346
v -0.006602 -0.077610 -0.039919
vn -0.0000 -0.0000 1.0000
vn -0.0260 0.9997 -0.0000
vn -0.0260 0.9997 -0.0001
vn -1.0000 -0.0000 -0.0000
vn 0.0253 -0.9997 0.0002
vn 0.0253 -0.9997 0.0007
vn 1.0000 -0.0000 -0.0000
vn -0.0000 -0.0000 -1.0000
vn -0.0000 -1.0000 -0.0000
vn -0.0000 1.0000 -0.0000
vn 0.0279 0.9996 0.0001
vn 0.0279 0.9996 -0.0000
vn -0.0288 -0.9996 -0.0009
vn -0.0288 -0.9996 -0.0003
s 0
f 1//1 2//1 3//1
f 3//1 2//1 4//1
f 5//1 6//1 7//1
f 7//1 6//1 8//1
f 7//1 8//1 4//1
f 4//1 8//1 28//1 9//1
f 4//1 9//1 3//1
f 5//1 2//1 6//1
f 6//1 2//1 1//1
f 6//1 1//1 10//1 25//1
f 10//1 1//1 11//1
f 10//1 11//1 9//1
f 9//1 11//1 12//1
f 9//1 12//1 3//1
f 6//2 25//2 26//2 13//2
f 13//3 26//3 27//3
f 8//4 6//4 15//4
f 15//4 6//4 13//4
f 9//5 28//5 30//5 16//5
f 16//6 30//6 29//6
f 10//7 9//7 14//7
f 14//7 9//7 16//7
f 16//8 29//8 15//8 14//8
f 14//8 15//8 13//8 27//8
f 3//4 17//4 1//4
f 1//4 17//4 18//4
f 19//9 17//9 12//9
f 12//9 17//9 3//9
f 20//7 19//7 11//7
f 11//7 19//7 12//7
f 1//10 18//10 11//10
f 11//10 18//10 20//10
f 19//1 20//1 17//1
f 17//1 20//1 18//1
f 5//10 21//10 2//10
f 2//10 21//10 22//10
f 7//4 23//4 5//4
f 5//4 23//4 21//4
f 24//9 23//9 4//9
f 4//9 23//9 7//9
f 22//7 24//7 2//7
f 2//7 24//7 4//7
f 23//1 24//1 21//1
f 21//1 24//1 22//1
f 26//11 25//11 10//11
f 27//12 26//12 10//12 14//12
f 30//13 28//13 8//13
f 29//14 30//14 8//14 15//14
