# Blender 3.3.0
# www.blender.org
mtllib Right_Slide_Casing.mtl
o Right_Slide_Casing
v -0.001000 -0.092000 -0.070000
v -0.001000 -0.092000 0.070000
v -0.071845 -0.092000 0.096959
v -0.096000 -0.092000 0.010000
v -0.096000 -0.092000 -0.010000
v -0.071845 -0.092000 -0.096959
v -0.096000 0.030000 -0.010000
v -0.096000 0.030000 0.010000
v -0.071000 0.030000 0.100000
v -0.034765 0.030000 0.100000
v -0.034765 0.030000 -0.100000
v -0.071000 0.030000 -0.100000
v 0.040000 0.000000 -0.072535
v 0.039835 0.003420 -0.073272
v 0.040000 0.000000 0.072535
v 0.039835 0.003420 0.073272
v 0.039016 0.008320 0.074549
v 0.039022 0.008296 -0.074542
v 0.037558 0.012997 0.076026
v 0.037558 0.012997 -0.076026
v 0.035431 0.017561 0.077735
v 0.035423 0.017576 -0.077741
v 0.032733 0.021796 -0.079597
v 0.032733 0.021796 0.079597
v 0.029406 0.025782 0.081649
v 0.029403 0.025784 -0.081650
v 0.025648 0.029289 -0.083770
v 0.025648 0.029289 0.083770
v 0.021354 0.032423 0.086022
v 0.021341 0.032431 -0.086029
v 0.016727 0.035029 -0.088296
v 0.016727 0.035029 0.088296
v 0.011740 0.037129 -0.090608
v 0.011735 0.037131 0.090610
v 0.006506 0.038670 -0.092904
v 0.006506 0.038670 0.092904
v 0.001083 0.039633 0.095157
v 0.001101 0.039631 -0.095150
v -0.004404 0.039996 0.097317
v -0.004404 0.039996 -0.097317
v -0.011683 0.039556 0.100000
v -0.011683 0.039556 -0.100000
v -0.015350 0.038928 0.100000
v -0.015350 0.038928 -0.100000
v -0.025677 0.035528 -0.100000
v -0.025677 0.035528 0.100000
v 0.040000 -0.012857 -0.070000
v 0.040000 -0.012857 0.070000
v -0.071000 -0.074945 -0.100000
v -0.071000 -0.074945 0.100000
vn -0.0000 -1.0000 -0.0000
vn -1.0000 -0.0000 -0.0000
vn -0.0000 1.0000 -0.0000
vn 0.9988 0.0481 -0.0000
vn 0.9863 0.1649 -0.0000
vn 0.9864 0.1646 -0.0000
vn 0.9547 0.2975 -0.0000
vn 0.9548 0.2972 -0.0000
vn 0.9064 0.4224 -0.0000
vn 0.9063 0.4226 -0.0000
vn 0.8432 0.5376 -0.0000
vn 0.8433 0.5374 -0.0000
vn 0.7677 0.6408 -0.0000
vn 0.6823 0.7311 -0.0000
vn 0.6823 0.7310 -0.0000
vn 0.5895 0.8078 -0.0000
vn 0.5894 0.8079 -0.0000
vn 0.4906 0.8714 -0.0000
vn 0.4907 0.8713 -0.0000
vn 0.3882 0.9216 -0.0000
vn 0.3881 0.9216 -0.0000
vn 0.2824 0.9593 -0.0000
vn 0.1748 0.9846 -0.0000
vn 0.1749 0.9846 -0.0000
vn 0.0661 0.9978 -0.0000
vn 0.0663 0.9978 -0.0000
vn -0.0603 0.9982 -0.0000
vn -0.1690 0.9856 -0.0000
vn -0.3127 0.9498 -0.0000
vn -0.5196 0.8544 -0.0000
vn 1.0000 -0.0000 -0.0000
vn 0.8879 -0.4600 -0.0000
vn -0.0000 -0.0000 -1.0000
vn -0.0000 -0.0000 1.0000
vn -0.9635 -0.0000 0.2676
vn -0.9635 -0.0000 -0.2676
vn 0.3498 -0.1812 0.9191
vn 0.3498 -0.1812 -0.9191
s 0
f 1//1 2//1 3//1
f 3//1 4//1 1//1
f 1//1 4//1 5//1
f 1//1 5//1 6//1
f 5//2 4//2 7//2
f 7//2 4//2 8//2
f 9//3 10//3 8//3
f 8//3 10//3 11//3
f 8//3 11//3 7//3
f 7//3 11//3 12//3
f 13//4 14//4 15//4
f 15//4 14//4 16//4
f 16//5 14//5 17//5
f 17//6 14//6 18//6
f 17//7 18//7 19//7
f 19//8 18//8 20//8
f 19//9 20//9 21//9
f 20//10 22//10 21//10
f 21//11 22//11 23//11
f 21//12 23//12 24//12
f 24//13 23//13 25//13
f 23//13 26//13 25//13
f 25//14 26//14 27//14
f 25//15 27//15 28//15
f 28//16 27//16 29//16
f 27//17 30//17 29//17
f 29//18 30//18 31//18
f 29//19 31//19 32//19
f 32//20 31//20 33//20
f 32//21 33//21 34//21
f 34//22 33//22 35//22
f 34//22 35//22 36//22
f 36//23 35//23 37//23
f 37//24 35//24 38//24
f 37//25 38//25 39//25
f 39//26 38//26 40//26
f 39//27 40//27 41//27
f 41//27 40//27 42//27
f 41//28 42//28 43//28
f 42//28 44//28 43//28
f 43//29 44//29 45//29
f 43//29 45//29 46//29
f 46//30 45//30 11//30
f 46//30 11//30 10//30
f 13//31 15//31 47//31
f 47//31 15//31 48//31
f 47//32 48//32 1//32
f 1//32 48//32 2//32
f 49//33 12//33 11//33
f 11//33 45//33 49//33
f 49//33 45//33 44//33
f 49//33 44//33 42//33
f 50//34 41//34 43//34
f 43//34 46//34 50//34
f 50//34 46//34 10//34
f 50//34 10//34 9//34
f 9//35 8//35 50//35
f 50//35 8//35 4//35
f 50//35 4//35 3//35
f 6//36 5//36 49//36
f 49//36 5//36 7//36
f 49//36 7//36 12//36
f 3//37 2//37 48//37
f 34//37 36//37 50//37
f 36//37 37//37 50//37
f 50//37 37//37 39//37
f 50//37 39//37 41//37
f 28//37 29//37 50//37
f 50//37 29//37 32//37
f 50//37 32//37 34//37
f 3//37 48//37 50//37
f 50//37 48//37 15//37
f 50//37 15//37 16//37
f 21//37 24//37 50//37
f 50//37 24//37 25//37
f 50//37 25//37 28//37
f 16//37 17//37 50//37
f 50//37 17//37 19//37
f 50//37 19//37 21//37
f 1//38 6//38 47//38
f 47//38 6//38 49//38
f 47//38 49//38 13//38
f 38//38 49//38 40//38
f 40//38 49//38 42//38
f 38//38 35//38 49//38
f 49//38 35//38 33//38
f 49//38 33//38 31//38
f 31//38 30//38 49//38
f 49//38 30//38 27//38
f 49//38 27//38 26//38
f 26//38 23//38 49//38
f 49//38 23//38 22//38
f 49//38 22//38 20//38
f 20//38 18//38 49//38
f 49//38 18//38 14//38
f 49//38 14//38 13//38
