# Blender 3.3.0
# www.blender.org
mtllib Left_Foot.mtl
o Left_Foot
v 0.014058 0.015000 -0.019500
v -0.013942 0.015000 -0.019500
v 0.014058 -0.015000 -0.019500
v -0.013942 -0.015000 -0.019500
v -0.025942 0.015000 -0.019500
v -0.109942 0.065000 -0.019500
v -0.025942 -0.015000 -0.019500
v -0.109942 -0.065000 -0.019500
v 0.110058 -0.065000 -0.019500
v 0.110058 0.065000 -0.019500
v 0.026058 0.015000 -0.019500
v 0.026058 -0.015000 -0.019500
v -0.109942 0.065000 -0.032500
v 0.110058 0.065000 -0.032500
v -0.109942 -0.065000 -0.032500
v 0.110058 -0.065000 -0.032500
v 0.014058 -0.015000 0.011500
v 0.014058 0.015000 0.011500
v 0.026058 -0.015000 0.011500
v 0.026058 0.015000 0.011500
v -0.025942 0.015000 0.011500
v -0.013942 0.015000 0.011500
v -0.025942 -0.015000 0.011500
v -0.013942 -0.015000 0.011500
vn -0.0000 -0.0000 1.0000
vn -0.0000 1.0000 -0.0000
vn -1.0000 -0.0000 -0.0000
vn -0.0000 -1.0000 -0.0000
vn 1.0000 -0.0000 -0.0000
vn -0.0000 -0.0000 -1.0000
s 0
f 1//1 2//1 3//1
f 3//1 2//1 4//1
f 5//1 6//1 7//1
f 7//1 6//1 8//1
f 7//1 8//1 4//1
f 4//1 8//1 9//1
f 4//1 9//1 3//1
f 5//1 2//1 6//1
f 6//1 2//1 1//1
f 6//1 1//1 10//1
f 10//1 1//1 11//1
f 10//1 11//1 9//1
f 9//1 11//1 12//1
f 9//1 12//1 3//1
f 6//2 10//2 13//2
f 13//2 10//2 14//2
f 8//3 6//3 15//3
f 15//3 6//3 13//3
f 9//4 8//4 16//4
f 16//4 8//4 15//4
f 10//5 9//5 14//5
f 14//5 9//5 16//5
f 16//6 15//6 14//6
f 14//6 15//6 13//6
f 3//3 17//3 1//3
f 1//3 17//3 18//3
f 19//4 17//4 12//4
f 12//4 17//4 3//4
f 20//5 19//5 11//5
f 11//5 19//5 12//5
f 1//2 18//2 11//2
f 11//2 18//2 20//2
f 19//1 20//1 17//1
f 17//1 20//1 18//1
f 5//2 21//2 2//2
f 2//2 21//2 22//2
f 7//3 23//3 5//3
f 5//3 23//3 21//3
f 24//4 23//4 4//4
f 4//4 23//4 7//4
f 22//5 24//5 2//5
f 2//5 24//5 4//5
f 23//1 24//1 21//1
f 21//1 24//1 22//1
